HIERARCHY
ROOT Hips
{
    OFFSET 0.000000 0.000000 0.000000
    CHANNELS 6 Xposition Yposition Zposition Zrotation Xrotation Yrotation
    JOINT Spine
    {
        OFFSET -0.000000 14.517291 0.000000
        CHANNELS 3 Zrotation Xrotation Yrotation
        JOINT Spine1
        {
            OFFSET -0.000000 37.558300 0.000000
            CHANNELS 3 Zrotation Xrotation Yrotation
            JOINT Neck
            {
                OFFSET -0.000000 37.404057 3.400369
                CHANNELS 3 Zrotation Xrotation Yrotation
                JOINT Head
                {
                    OFFSET -0.000000 24.785618 -3.540803
                    CHANNELS 3 Zrotation Xrotation Yrotation
                    End Site
                    {
                        OFFSET -0.000000 35.408028 0.000000
                    }
                }
            }
            JOINT LeftShoulder
            {
                OFFSET 6.992933 33.973492 -0.192664
                CHANNELS 3 Zrotation Xrotation Yrotation
                JOINT LeftArm
                {
                    OFFSET 21.527611 0.000000 0.000000
                    CHANNELS 3 Zrotation Xrotation Yrotation
                    JOINT LeftForeArm
                    {
                        OFFSET 56.353916 0.000000 0.000000
                        CHANNELS 3 Zrotation Xrotation Yrotation
                        JOINT LeftHand
                        {
                            OFFSET 47.774071 0.000000 0.000000
                            CHANNELS 3 Zrotation Xrotation Yrotation
                            End Site
                            {
                                OFFSET 26.556021 0.000000 0.000000
                            }
                        }
                    }
                }
            }
            JOINT RightShoulder
            {
                OFFSET -7.065357 33.973492 -0.192664
                CHANNELS 3 Zrotation Xrotation Yrotation
                JOINT RightArm
                {
                    OFFSET -21.527611 0.000000 0.000000
                    CHANNELS 3 Zrotation Xrotation Yrotation
                    JOINT RightForeArm
                    {
                        OFFSET -56.353916 0.000000 0.000000
                        CHANNELS 3 Zrotation Xrotation Yrotation
                        JOINT RightHand
                        {
                            OFFSET -47.774071 0.000000 0.000000
                            CHANNELS 3 Zrotation Xrotation Yrotation
                            End Site
                            {
                                OFFSET -26.556021 0.000000 0.000000
                            }
                        }
                    }
                }
            }
        }
    }
    JOINT LeftUpLeg
    {
        OFFSET 17.704014 0.000000 0.000000
        CHANNELS 3 Zrotation Xrotation Yrotation
        JOINT LeftLeg
        {
            OFFSET -0.000000 -81.181816 0.000000
            CHANNELS 3 Zrotation Xrotation Yrotation
            JOINT LeftFoot
            {
                OFFSET -0.000000 -62.821102 0.000000
                CHANNELS 3 Zrotation Xrotation Yrotation
                JOINT LeftToeBase
                {
                    OFFSET -0.000000 -11.507608 26.556021
                    CHANNELS 3 Zrotation Xrotation Yrotation
                    End Site
                    {
                        OFFSET -0.000000 0.000000 7.081605
                    }
                }
            }
        }
    }
    JOINT RightUpLeg
    {
        OFFSET -17.704014 0.000000 0.000000
        CHANNELS 3 Zrotation Xrotation Yrotation
        JOINT RightLeg
        {
            OFFSET -0.000000 -81.181816 0.000000
            CHANNELS 3 Zrotation Xrotation Yrotation
            JOINT RightFoot
            {
                OFFSET -0.000000 -62.821102 0.000000
                CHANNELS 3 Zrotation Xrotation Yrotation
                JOINT RightToeBase
                {
                    OFFSET -0.000000 -11.507608 26.556021
                    CHANNELS 3 Zrotation Xrotation Yrotation
                    End Site
                    {
                        OFFSET -0.000000 0.000000 7.081605
                    }
                }
            }
        }
    }
}
MOTION
Frames:    8
Frame Time:    0.008333
19.569624    151.271774    -44.209473    -0.900569    -2.097857    -9.308177    -0.912348    -0.805023    2.511206    1.531483    4.199901    0.782575    8.458900    -7.776162    3.059947    0.568312    8.922147    1.381226    12.980664    -3.357506    -20.066219    -14.441568    -18.092768    -66.755768    11.356519    -37.088112    -8.165874    -22.134642    -29.686392    -39.509644    -2.621129    9.755284    5.882355    32.663479    10.850172    50.945385    -0.412761    -21.648092    100.698883    10.792584    -19.072058    23.480017    9.717138    -28.576504    -10.979895    -9.222749    14.668491    -12.943504    -13.266308    9.565355    28.813295    0.000000    0.000000    0.000000    -5.302587    10.144939    -19.504822    8.078497    32.964603    -5.101089    0.609178    -31.135464    -22.866213    0.000000    0.000000    0.000000    
19.579649    151.279480    -44.201477    -0.905484    -2.094872    -9.322032    -0.905896    -0.801595    2.520689    1.529226    4.205479    0.785685    8.462698    -7.788311    3.059751    0.558854    8.935712    1.378601    12.966585    -3.346296    -20.078575    -14.432304    -18.075235    -66.722290    11.333906    -37.107899    -8.249079    -22.137400    -29.698660    -39.523052    -2.618504    9.761238    5.873462    32.653328    10.873281    50.954350    -0.430728    -21.680035    100.680710    10.790513    -19.083998    23.486134    9.725248    -28.576735    -10.959443    -9.223759    14.676232    -12.946622    -13.260914    9.563049    28.813177    0.000000    0.000000    0.000000    -5.296588    10.150134    -19.492111    8.065728    32.938488    -5.087729    0.617985    -31.120182    -22.886173    0.000000    0.000000    0.000000    
19.585915    151.287277    -44.186150    -0.906175    -2.097059    -9.339411    -0.917256    -0.799200    2.526943    1.544956    4.212215    0.787115    8.453269    -7.796689    3.055134    0.560054    8.949619    1.375267    12.955567    -3.325785    -20.077734    -14.459059    -18.081791    -66.708000    11.286715    -37.127224    -8.344034    -22.132582    -29.716234    -39.522305    -2.621280    9.753003    5.881818    32.650127    10.894289    50.943024    -0.429822    -21.689869    100.665169    10.783405    -19.096653    23.483574    9.727816    -28.564627    -10.942221    -9.217810    14.680778    -12.978024    -13.272012    9.543419    28.843990    0.000000    0.000000    0.000000    -5.297543    10.171152    -19.458395    8.072562    32.889709    -5.135242    0.633800    -31.101940    -22.842972    0.000000    0.000000    0.000000    
19.591093    151.295334    -44.168503    -0.913346    -2.102036    -9.354110    -0.913725    -0.788333    2.528763    1.547601    4.213362    0.787562    8.442939    -7.799050    3.050311    0.555362    8.958982    1.371963    12.941209    -3.309710    -20.072327    -14.441815    -18.058474    -66.681313    11.274587    -37.140942    -8.420277    -22.074774    -29.740820    -39.539597    -2.631778    9.758164    5.891017    32.668194    10.903618    50.943127    -0.424713    -21.687828    100.655251    10.774372    -19.104460    23.460379    9.735693    -28.547932    -10.929210    -9.217198    14.681314    -12.955877    -13.257533    9.539840    28.820190    0.000000    0.000000    0.000000    -5.289097    10.198009    -19.432169    8.066847    32.845192    -5.120681    0.633298    -31.081615    -22.848900    0.000000    0.000000    0.000000    
19.602665    151.303574    -44.151058    -0.909421    -2.097835    -9.373108    -0.918983    -0.795771    2.534065    1.548556    4.226212    0.789140    8.460482    -7.806509    3.053574    0.529159    8.968122    1.369253    12.937209    -3.292572    -20.066950    -14.461298    -18.069283    -66.673729    11.232560    -37.139385    -8.497218    -22.058102    -29.741713    -39.534153    -2.635672    9.768773    5.881825    32.661739    10.926478    50.973984    -0.445838    -21.720491    100.614700    10.785153    -19.113775    23.441050    9.736603    -28.537800    -10.916471    -9.216669    14.678808    -12.966372    -13.264944    9.517651    28.832741    0.000000    0.000000    0.000000    -5.293285    10.215181    -19.401562    8.062545    32.793434    -5.128935    0.659460    -31.075583    -22.843731    0.000000    0.000000    0.000000    
19.611258    151.314682    -44.131897    -0.911011    -2.097543    -9.403200    -0.924456    -0.798319    2.545114    1.563260    4.239229    0.792145    8.432679    -7.802728    3.044482    0.545907    8.958712    1.367290    12.912504    -3.278291    -20.073690    -14.445553    -18.076080    -66.638306    11.192653    -37.118633    -8.573198    -22.073235    -29.705963    -39.556786    -2.648428    9.774323    5.888597    32.666229    10.942679    50.986191    -0.451449    -21.742388    100.592751    10.781625    -19.131369    23.433302    9.749701    -28.515425    -10.889534    -9.218078    14.664011    -12.936935    -13.242906    9.519293    28.810284    0.000000    0.000000    0.000000    -5.291594    10.234757    -19.354023    8.058355    32.738857    -5.115730    0.639037    -31.052864    -22.865145    0.000000    0.000000    0.000000    
19.621426    151.328033    -44.112957    -0.913553    -2.091188    -9.442731    -0.922240    -0.806268    2.560382    1.568483    4.251378    0.796865    8.426999    -7.794989    3.050977    0.537255    8.946928    1.375329    12.904479    -3.267350    -20.075930    -14.448346    -18.077791    -66.603554    11.159144    -37.106361    -8.655712    -22.060179    -29.688656    -39.574150    -2.655397    9.780128    5.889637    32.669201    10.960446    51.011379    -0.446352    -21.754919    100.563988    10.811307    -19.143442    23.440195    9.772586    -28.494015    -10.834744    -9.221759    14.649213    -12.912685    -13.242906    9.509090    28.787971    0.000000    0.000000    0.000000    -5.292291    10.249237    -19.267422    8.074589    32.681133    -5.114669    0.641152    -31.034098    -22.886217    0.000000    0.000000    0.000000    
19.635397    151.344818    -44.089825    -0.911471    -2.083846    -9.492768    -0.928945    -0.823893    2.580865    1.581184    4.275189    0.803015    8.414040    -7.768958    3.041412    0.536976    8.903103    1.370280    12.883266    -3.246564    -20.077385    -14.428482    -18.093864    -66.571884    11.117413    -37.095638    -8.727859    -22.201773    -29.617052    -39.627766    -2.663999    9.780181    5.899179    32.676369    10.967515    51.026608    -0.432323    -21.761660    100.546188    10.824063    -19.164644    23.431423    9.794183    -28.465075    -10.773196    -9.220446    14.625352    -12.868707    -13.223393    9.504901    28.740841    0.000000    0.000000    0.000000    -5.296846    10.267268    -19.158419    8.093039    32.604172    -5.150761    0.637629    -31.008873    -22.886627    0.000000    0.000000    0.000000    
